<mxfile host="Electron" agent="Mozilla/5.0 (Windows NT 10.0; Win64; x64) AppleWebKit/537.36 (KHTML, like Gecko) draw.io/25.0.2 Chrome/128.0.6613.186 Electron/32.2.5 Safari/537.36" version="25.0.2">
  <diagram name="Page-1" id="csAERXVSv3tsJkRa4UOi">
    <mxGraphModel dx="1195" dy="712" grid="1" gridSize="10" guides="1" tooltips="1" connect="1" arrows="1" fold="1" page="1" pageScale="1" pageWidth="827" pageHeight="1169" math="0" shadow="0">
      <root>
        <mxCell id="0" />
        <mxCell id="1" parent="0" />
        <mxCell id="06La_71-Rn1Q7rLBXYEx-8" style="edgeStyle=orthogonalEdgeStyle;rounded=0;orthogonalLoop=1;jettySize=auto;html=1;exitX=0.5;exitY=1;exitDx=0;exitDy=0;entryX=0.5;entryY=0;entryDx=0;entryDy=0;" edge="1" parent="1" source="06La_71-Rn1Q7rLBXYEx-1" target="06La_71-Rn1Q7rLBXYEx-2">
          <mxGeometry relative="1" as="geometry" />
        </mxCell>
        <mxCell id="06La_71-Rn1Q7rLBXYEx-1" value="Input Fetch (8-bit A, B)" style="shape=rectangle;fillColor=#D6EAF8;strokeColor=#2980B9;" vertex="1" parent="1">
          <mxGeometry x="300" y="70" width="180" height="40" as="geometry" />
        </mxCell>
        <mxCell id="06La_71-Rn1Q7rLBXYEx-10" style="edgeStyle=orthogonalEdgeStyle;rounded=0;orthogonalLoop=1;jettySize=auto;html=1;exitX=0.5;exitY=1;exitDx=0;exitDy=0;entryX=0.5;entryY=0;entryDx=0;entryDy=0;" edge="1" parent="1" source="06La_71-Rn1Q7rLBXYEx-2" target="06La_71-Rn1Q7rLBXYEx-3">
          <mxGeometry relative="1" as="geometry" />
        </mxCell>
        <mxCell id="06La_71-Rn1Q7rLBXYEx-2" value="Fuzzy Memoization" style="shape=rectangle;fillColor=#F9E79F;strokeColor=#B7950B;" vertex="1" parent="1">
          <mxGeometry x="300" y="140" width="180" height="40" as="geometry" />
        </mxCell>
        <mxCell id="06La_71-Rn1Q7rLBXYEx-12" style="edgeStyle=orthogonalEdgeStyle;rounded=0;orthogonalLoop=1;jettySize=auto;html=1;exitX=0.5;exitY=1;exitDx=0;exitDy=0;entryX=0.5;entryY=0;entryDx=0;entryDy=0;" edge="1" parent="1" source="06La_71-Rn1Q7rLBXYEx-3" target="06La_71-Rn1Q7rLBXYEx-4">
          <mxGeometry relative="1" as="geometry" />
        </mxCell>
        <mxCell id="06La_71-Rn1Q7rLBXYEx-3" value="Approximate Multiplier (Dadda + OR-Based)" style="shape=rectangle;fillColor=#D5F5E3;strokeColor=#27AE60;" vertex="1" parent="1">
          <mxGeometry x="270" y="210" width="240" height="40" as="geometry" />
        </mxCell>
        <mxCell id="06La_71-Rn1Q7rLBXYEx-15" style="edgeStyle=orthogonalEdgeStyle;rounded=0;orthogonalLoop=1;jettySize=auto;html=1;exitX=0.5;exitY=1;exitDx=0;exitDy=0;entryX=0.5;entryY=0;entryDx=0;entryDy=0;" edge="1" parent="1" source="06La_71-Rn1Q7rLBXYEx-4" target="06La_71-Rn1Q7rLBXYEx-5">
          <mxGeometry relative="1" as="geometry" />
        </mxCell>
        <mxCell id="06La_71-Rn1Q7rLBXYEx-4" value="Partial Product Reduction (Compressors)" style="shape=rectangle;fillColor=#FAD7A0;strokeColor=#E67E22;" vertex="1" parent="1">
          <mxGeometry x="270" y="280" width="240" height="40" as="geometry" />
        </mxCell>
        <mxCell id="06La_71-Rn1Q7rLBXYEx-16" style="edgeStyle=orthogonalEdgeStyle;rounded=0;orthogonalLoop=1;jettySize=auto;html=1;exitX=0.5;exitY=1;exitDx=0;exitDy=0;entryX=0.5;entryY=0;entryDx=0;entryDy=0;" edge="1" parent="1" source="06La_71-Rn1Q7rLBXYEx-5" target="06La_71-Rn1Q7rLBXYEx-6">
          <mxGeometry relative="1" as="geometry" />
        </mxCell>
        <mxCell id="06La_71-Rn1Q7rLBXYEx-5" value="Approximate Adder (Lower-Part OR-Based)" style="shape=rectangle;fillColor=#E8DAEF;strokeColor=#8E44AD;" vertex="1" parent="1">
          <mxGeometry x="270" y="350" width="240" height="40" as="geometry" />
        </mxCell>
        <mxCell id="06La_71-Rn1Q7rLBXYEx-17" style="edgeStyle=orthogonalEdgeStyle;rounded=0;orthogonalLoop=1;jettySize=auto;html=1;exitX=0.5;exitY=1;exitDx=0;exitDy=0;entryX=0.5;entryY=0;entryDx=0;entryDy=0;" edge="1" parent="1" source="06La_71-Rn1Q7rLBXYEx-6" target="06La_71-Rn1Q7rLBXYEx-7">
          <mxGeometry relative="1" as="geometry" />
        </mxCell>
        <mxCell id="06La_71-Rn1Q7rLBXYEx-6" value="Pipeline Stages" style="shape=rectangle;fillColor=#AED6F1;strokeColor=#2980B9;" vertex="1" parent="1">
          <mxGeometry x="300" y="420" width="180" height="40" as="geometry" />
        </mxCell>
        <mxCell id="06La_71-Rn1Q7rLBXYEx-7" value="Integration with RISC-V SoC" style="shape=rectangle;fillColor=#F5CBA7;strokeColor=#D35400;" vertex="1" parent="1">
          <mxGeometry x="270" y="490" width="240" height="40" as="geometry" />
        </mxCell>
      </root>
    </mxGraphModel>
  </diagram>
</mxfile>
